<?xml version="1.0" standalone="no"?><!DOCTYPE svg PUBLIC "-//W3C//DTD SVG 1.1//EN" "http://www.w3.org/Graphics/SVG/1.1/DTD/svg11.dtd"><svg t="1620372961416" class="icon" viewBox="0 0 1024 1024" version="1.1" xmlns="http://www.w3.org/2000/svg" p-id="3545" data-spm-anchor-id="a313x.7781069.0.i0" xmlns:xlink="http://www.w3.org/1999/xlink" width="200" height="200"><defs><style type="text/css"></style></defs><path d="M993.6896 442.45902222l-95.39128889-9.10222222 23.66577778-64.92918518c2.79134815-7.5245037-1.21362963-15.89854815-8.73813334-18.6898963l-702.69155555-255.71176297c-7.5245037-2.79134815-15.89854815 1.21362963-18.6898963 8.73813334l-108.74121481 298.67425186c-2.79134815 7.5245037 1.21362963 15.89854815 8.73813333 18.68989628l307.29102223 111.65392594-101.09534815 213.72017778H124.00260741V681.90814815c0-8.00995555-6.5536-14.56355555-14.56355556-14.56355556H60.52977778c-8.00995555 0-14.56355555 6.5536-14.56355556 14.56355556v203.64705185c0 8.00995555 6.5536 14.56355555 14.56355556 14.56355555h48.90927407c8.00995555 0 14.56355555-6.5536 14.56355556-14.56355555v-62.98737778h219.5456l2.54862222 1.21362963 125.4893037-265.4208 322.82548149 117.47934815c7.5245037 2.79134815 15.89854815-1.21362963 18.68989629-8.73813333l23.66577778-64.92918519 79.00728889 54.24924444c7.5245037 2.79134815 15.89854815-1.21362963 18.6898963-8.73813333l67.96325925-186.53487407c2.66998518-7.5245037-1.21362963-15.89854815-8.73813333-18.6898963zM278.13357037 279.22583703c-26.09303703 0-47.33155555-21.23851852-47.33155555-47.33155555s21.23851852-47.33155555 47.33155555-47.33155556 47.33155555 21.23851852 47.33155555 47.33155556-21.11715555 47.33155555-47.33155555 47.33155555z" fill="#ffffff" p-id="3546"></path></svg>