<svg xmlns="http://www.w3.org/2000/svg" width="922" height="511" xmlns:xlink="http://www.w3.org/1999/xlink" viewBox="0 0 922 511">
    <defs/>
    <g transform="translate(-667,-121.88)">
        <g id="shape1" transform="translate(1027.5,123.38)">
            <path d="M201,106.3L201,11C201,4.9,196.1,0,190,0L11,0C4.9,0,0,4.9,0,11L0,106.3C0,112.3,4.9,117.3,11,117.3L190,117.3C196.1,117.3,201,112.3,201,106.3z" fill-rule="evenodd" fill="#92d4ff" stroke-width="3" stroke="#000000"/>
            <text xml:space="preserve" style="fill:#191919;font-family:微软雅黑;font-size:26pt;font-weight:bold">
                <tspan y="73" x="52">ID：0</tspan>
            </text>
        </g>
        <g id="shape2" transform="translate(1080,208.38)">
            <path d="M96,56L96,0L0,0L0,56L96,56z" fill-rule="evenodd" fill="#abebc6" stroke="#323232"/>
            <text xml:space="preserve" style="fill:#191919;font-family:微软雅黑;font-size:22pt;font-weight:bold">
                <tspan y="39.5" x="15.5">veth</tspan>
            </text>
        </g>
        <g id="shape3" transform="translate(668.5,373.13)">
            <path d="M919,103L919,11C919,4.9,914.1,0,908,0L11,0C4.9,0,0,4.9,0,11L0,103C0,109.1,4.9,114,11,114L908,114C914.1,114,919,109.1,919,103z" fill-rule="evenodd" fill="#92d4ff" stroke-width="3" stroke="#000000"/>
            <text xml:space="preserve" style="fill:#191919;font-family:微软雅黑;font-size:28pt;font-weight:bold">
                <tspan y="72" x="306">Docker0(Bridge)</tspan>
            </text>
        </g>
        <g id="shape4" transform="translate(1080,336.13)">
            <path d="M96,56L96,0L0,0L0,56L96,56z" fill-rule="evenodd" fill="#abebc6" stroke="#323232"/>
            <text xml:space="preserve" style="fill:#191919;font-family:微软雅黑;font-size:22pt;font-weight:bold">
                <tspan y="39.5" x="15.5">veth</tspan>
            </text>
        </g>
        <g id="shape5" transform="translate(1005,562.13)">
            <path d="M246,70L246,0L0,0L0,70L246,70z" fill-rule="evenodd" fill="#abebc6" stroke="#323232"/>
            <text xml:space="preserve" style="fill:#191919;font-family:微软雅黑;font-size:22pt;font-weight:bold">
                <tspan y="46.5" x="90">eth0</tspan>
            </text>
        </g>
        <g id="shape6" transform="translate(1128,264.38)">
            <path d="M0,10.4L0,61.4" stroke-width="3" fill="none" stroke="#191919"/>
            <path d="M-5.2,10.4L0,0L5.2,10.4L-5.2,10.4" stroke-linecap="round" stroke-width="1" fill="#191919" stroke="#191919"/>
            <path d="M5.2,61.4L0,71.8L-5.2,61.4L5.2,61.4" stroke-linecap="round" stroke-width="1" fill="#191919" stroke="#191919"/>
        </g>
        <path id="shape7" transform="translate(774.36,579.66)" d="M0,34.4L0,0L4.5,0L4.5,14.1L22.4,14.1L22.4,0L27,0L27,34.4L22.4,34.4L22.4,18.2L4.5,18.2L4.5,34.4L0,34.4zM32.8,21.9C32.8,17.3,34,13.9,36.6,11.7C38.7,9.8,41.3,8.9,44.4,8.9C47.8,8.9,50.6,10,52.8,12.3C55,14.5,56.1,17.6,56.1,21.6C56.1,24.8,55.6,27.3,54.6,29.1C53.7,31,52.3,32.4,50.4,33.4C48.6,34.4,46.6,34.9,44.4,34.9C40.9,34.9,38.1,33.8,36,31.6C33.8,29.3,32.8,26.1,32.8,21.9zM37.1,21.9C37.1,25.1,37.8,27.5,39.2,29.1C40.6,30.7,42.3,31.5,44.4,31.5C46.5,31.5,48.3,30.7,49.6,29.1C51,27.5,51.7,25,51.7,21.8C51.7,18.7,51,16.4,49.6,14.8C48.2,13.2,46.5,12.4,44.4,12.4C42.3,12.4,40.6,13.2,39.2,14.8C37.8,16.3,37.1,18.7,37.1,21.9zM59.6,26.9L63.8,26.3C64,27.9,64.7,29.2,65.8,30.1C66.8,31,68.3,31.5,70.3,31.5C72.2,31.5,73.6,31.1,74.6,30.3C75.5,29.5,76,28.6,76,27.5C76,26.5,75.6,25.8,74.7,25.2C74.1,24.9,72.7,24.4,70.4,23.8C67.3,23,65.2,22.4,64,21.8C62.8,21.2,61.9,20.4,61.3,19.4C60.6,18.4,60.3,17.3,60.3,16.1C60.3,15,60.6,13.9,61.1,13C61.6,12.1,62.3,11.3,63.2,10.6C63.8,10.2,64.7,9.7,65.9,9.4C67,9.1,68.2,8.9,69.5,8.9C71.5,8.9,73.2,9.2,74.6,9.8C76.1,10.3,77.2,11.1,77.9,12C78.6,13,79.1,14.3,79.4,15.9L75.2,16.5C75.1,15.2,74.5,14.2,73.6,13.5C72.7,12.7,71.4,12.4,69.8,12.4C67.9,12.4,66.5,12.7,65.7,13.3C64.8,14,64.4,14.7,64.4,15.6C64.4,16.1,64.6,16.6,64.9,17.1C65.3,17.5,65.8,17.9,66.5,18.2C67,18.3,68.2,18.7,70.3,19.3C73.3,20.1,75.3,20.7,76.5,21.2C77.7,21.7,78.6,22.5,79.3,23.4C80,24.4,80.3,25.6,80.3,27C80.3,28.5,79.9,29.8,79.1,31C78.3,32.3,77.1,33.2,75.5,33.9C74,34.6,72.2,34.9,70.3,34.9C67,34.9,64.6,34.3,62.9,32.9C61.2,31.6,60.1,29.6,59.6,26.9zM94.5,30.6L95.1,34.3C94,34.6,92.9,34.7,92,34.7C90.4,34.7,89.2,34.4,88.4,34C87.5,33.5,87,32.8,86.6,32.1C86.3,31.3,86.1,29.6,86.1,27.1L86.1,12.8L83,12.8L83,9.5L86.1,9.5L86.1,3.3L90.3,.8L90.3,9.5L94.5,9.5L94.5,12.8L90.3,12.8L90.3,27.3C90.3,28.5,90.4,29.3,90.5,29.6C90.7,30,90.9,30.2,91.2,30.4C91.6,30.6,92.1,30.8,92.7,30.8C93.1,30.8,93.8,30.7,94.5,30.6z" fill-rule="evenodd" fill="#000000" stroke="#323232"/>
        <g id="shape8" transform="translate(1128,487.13)">
            <path d="M0,9.8L0,65.2" stroke-width="3" fill="none" stroke="#191919"/>
            <path d="M-4.9,9.8L0,0L4.9,9.8L-4.9,9.8" stroke-linecap="round" stroke-width="1" fill="#191919" stroke="#191919"/>
            <path d="M4.9,65.2L0,75L-4.9,65.2L4.9,65.2" stroke-linecap="round" stroke-width="1" fill="#191919" stroke="#191919"/>
        </g>
    </g>
</svg>
