<?xml version="1.0" standalone="no"?><!DOCTYPE svg PUBLIC "-//W3C//DTD SVG 1.1//EN" "http://www.w3.org/Graphics/SVG/1.1/DTD/svg11.dtd"><svg t="1620438320775" class="icon" viewBox="0 0 1024 1024" version="1.1" xmlns="http://www.w3.org/2000/svg" p-id="1651" xmlns:xlink="http://www.w3.org/1999/xlink" width="200" height="200"><defs><style type="text/css"></style></defs><path d="M984.064 470.60224c21.32736 0 39.39328-17.5104 38.98624-38.81984-0.4096-20.63104-17.25184-37.18912-38.03392-37.18912h-66.96448v-80.08192h66.01472c21.3248 0 39.39072-17.5104 38.98368-38.81984-0.4096-20.6336-17.25184-37.19168-38.03392-37.19168h-66.96448V181.35808c0-40.31232-33.00608-73.15968-73.21088-73.15968H181.71904c-40.34048 0-73.21088 32.98304-73.21088 73.15968v57.14176H42.49344c-21.3248 0-39.39072 17.5104-38.98368 38.81984 0.4096 20.6336 17.25184 37.19168 38.03392 37.19168h66.96448v80.08192H42.49344c-21.3248 0-39.39072 17.5104-38.98368 38.81728 0.4096 20.6336 17.25184 37.19168 38.03392 37.19168h66.96448v81.43872H42.49344c-21.3248 0-39.39072 17.5104-38.98368 38.81984 0.4096 20.63104 17.25184 37.18912 38.03392 37.18912h66.96448v81.43872H42.49344c-21.3248 0-39.39072 17.5104-38.98368 38.81984 0.4096 20.6336 17.25184 37.19168 38.03392 37.19168h66.96448v57.14176c0 40.31232 33.00608 73.15968 73.21088 73.15968h662.98624c40.34048 0 73.21088-32.98304 73.21088-73.15968v-57.14176h66.01472c21.3248 0 39.39072-17.5104 38.98368-38.81984-0.4096-20.6336-17.25184-37.19168-38.03392-37.19168h-66.8288v-81.43872h66.01472c21.3248 0 39.39072-17.5104 38.98368-38.81984-0.4096-20.63104-17.25184-37.18912-38.03392-37.18912h-66.96448v-81.43872h66.01472zM175.1168 855.13472V174.7584H855.9872v345.11872h-258.2528l-132.224 88.0384c-15.36768-9.85856-33.55136-15.77472-53.1456-15.77472-55.26016 0-99.94496 45.49888-98.67776 100.99968 1.26976 52.25984 43.9808 94.94272 96.2816 96.20992 55.54176 1.2672 101.07392-43.38688 101.07392-98.60352 0-5.91616-0.70656-11.55072-1.69216-17.18528l112.35072-74.80064h234.28608v256.37376H175.11424z" p-id="1652"></path><path d="M566.91968 410.38592c14.94272 9.50272 32.59904 15.20384 51.61728 15.20384 53.65248 0 96.98048-43.84256 95.75936-97.32096-1.22368-50.3552-42.37824-91.07456-92.7744-92.70528-54.33088-1.62816-98.74688 41.536-98.74688 95.0144 0 5.69856 0.68096 11.12832 1.63072 16.55808l-109.07136 72.07424H171.52v76.00896h267.04128l128.3584-84.83328z" p-id="1653"></path></svg>