<?xml version="1.0" standalone="no"?><!DOCTYPE svg PUBLIC "-//W3C//DTD SVG 1.1//EN" "http://www.w3.org/Graphics/SVG/1.1/DTD/svg11.dtd"><svg t="1620290920744" class="icon" viewBox="0 0 1024 1024" version="1.1" xmlns="http://www.w3.org/2000/svg" p-id="2356" xmlns:xlink="http://www.w3.org/1999/xlink" width="200" height="200"><defs><style type="text/css"></style></defs><path d="M102.4 512a409.6 409.6 0 0 1 819.2 0h102.4a512 512 0 1 0-512 512v-102.4a409.6 409.6 0 0 1-409.6-409.6z" p-id="2357"></path><path d="M665.704388 593.164261m36.203867 36.203867l307.008794 307.008794q36.203867 36.203867 0 72.407734l0 0q-36.203867 36.203867-72.407735 0l-307.008794-307.008793q-36.203867-36.203867 0-72.407735l0 0q36.203867-36.203867 72.407735 0Z" p-id="2358"></path><path d="M1045.199535 665.659399m-36.203867 36.203867l-307.008794 307.008794q-36.203867 36.203867-72.407734 0l0 0q-36.203867-36.203867 0-72.407734l307.008794-307.008794q36.203867-36.203867 72.407734 0l0 0q36.203867 36.203867 0 72.407734Z" p-id="2359"></path></svg>