<?xml version="1.0" standalone="no"?><!DOCTYPE svg PUBLIC "-//W3C//DTD SVG 1.1//EN" "http://www.w3.org/Graphics/SVG/1.1/DTD/svg11.dtd"><svg t="1620376909908" class="icon" viewBox="0 0 1024 1024" version="1.1" xmlns="http://www.w3.org/2000/svg" p-id="5569" xmlns:xlink="http://www.w3.org/1999/xlink" width="200" height="200"><defs><style type="text/css"></style></defs><path d="M967.111111 540.444444h-71.111111a32.142222 32.142222 0 0 0 0-5.12V28.444444a28.444444 28.444444 0 0 0-56.888889 0v508.017778a16.497778 16.497778 0 0 0 0 5.12H540.444444a16.497778 16.497778 0 0 0 0-5.12V28.444444a28.444444 28.444444 0 0 0-56.888888 0v508.017778a16.497778 16.497778 0 0 0 0 3.982222H182.897778a16.497778 16.497778 0 0 0 0-5.12V28.444444a28.444444 28.444444 0 0 0-56.888889 0v508.017778a16.497778 16.497778 0 0 0 0 5.12H56.888889a56.888889 56.888889 0 0 0-56.888889 56.888889V967.111111a56.888889 56.888889 0 0 0 56.888889 56.888889h910.222222a56.888889 56.888889 0 0 0 56.888889-56.888889V597.333333a56.888889 56.888889 0 0 0-56.888889-56.888889z m0 426.666667H56.888889V597.333333h910.222222z" p-id="5570" fill="#ffffff"></path><path d="M170.666667 811.235556h199.111111a28.444444 28.444444 0 0 0 0-56.888889H170.666667a28.444444 28.444444 0 1 0 0 56.888889z" p-id="5571" fill="#ffffff"></path></svg>