<?xml version="1.0" standalone="no"?><!DOCTYPE svg PUBLIC "-//W3C//DTD SVG 1.1//EN" "http://www.w3.org/Graphics/SVG/1.1/DTD/svg11.dtd"><svg t="1620291935149" class="icon" viewBox="0 0 1024 1024" version="1.1" xmlns="http://www.w3.org/2000/svg" p-id="3547" xmlns:xlink="http://www.w3.org/1999/xlink" width="200" height="200"><defs><style type="text/css"></style></defs><path d="M914.432 617.984c-35.328 0-63.488-28.672-63.488-63.488 0-35.328 28.672-63.488 63.488-63.488s63.488 28.672 63.488 63.488c0 34.816-28.672 63.488-63.488 63.488z m-63.488-211.968c-23.552 0-42.496-18.944-42.496-42.496 0-23.552 18.944-42.496 42.496-42.496 23.552 0 42.496 18.944 42.496 42.496 0 23.552-19.456 42.496-42.496 42.496z m42.496 338.944c0 46.592-37.888 84.48-84.48 84.48s-84.48-37.888-84.48-84.48S762.368 660.48 808.96 660.48c46.08 0 84.48 37.888 84.48 84.48z m-317.952-359.936c-93.696 0-169.472-75.776-169.472-169.472S481.792 46.08 575.488 46.08s169.472 75.776 169.472 169.472-75.776 169.472-169.472 169.472z m-275.456 465.92c-70.144 0-126.976-56.832-126.976-126.976 0-70.144 56.832-126.976 126.976-126.976s126.976 56.832 126.976 126.976c0.512 70.144-56.832 126.976-126.976 126.976zM194.56 532.992c-81.92 0-148.48-66.56-148.48-148.48s66.56-148.48 148.48-148.48 148.48 66.56 148.48 148.48-67.072 148.48-148.48 148.48z m380.928 232.96c58.368 0 105.984 47.616 105.984 105.984 0 58.368-47.616 105.984-105.984 105.984-58.368 0-105.984-47.616-105.984-105.984 0-58.368 47.616-105.984 105.984-105.984z" p-id="3548" fill="#2c2c2c"></path></svg>