<?xml version="1.0" standalone="no"?><!DOCTYPE svg PUBLIC "-//W3C//DTD SVG 1.1//EN" "http://www.w3.org/Graphics/SVG/1.1/DTD/svg11.dtd"><svg t="1620290900002" class="icon" viewBox="0 0 1024 1024" version="1.1" xmlns="http://www.w3.org/2000/svg" p-id="2033" xmlns:xlink="http://www.w3.org/1999/xlink" width="200" height="200"><defs><style type="text/css"></style></defs><path d="M512 1024C229.7 1024 0 794.3 0 512S229.7 0 512 0s512 229.7 512 512-229.7 512-512 512z m0-938.7C276.7 85.3 85.3 276.7 85.3 512S276.7 938.7 512 938.7 938.7 747.3 938.7 512 747.3 85.3 512 85.3z" fill="#2c2c2c" p-id="2034"></path><path d="M640 682.7H384c-23.6 0-42.7-19.1-42.7-42.7V384c0-23.6 19.1-42.7 42.7-42.7h256c23.6 0 42.7 19.1 42.7 42.7v256c0 23.6-19.1 42.7-42.7 42.7z m-213.3-85.4h170.7V426.7H426.7v170.6z" fill="#2c2c2c" p-id="2035"></path></svg>