<?xml version="1.0" standalone="no"?><!DOCTYPE svg PUBLIC "-//W3C//DTD SVG 1.1//EN" "http://www.w3.org/Graphics/SVG/1.1/DTD/svg11.dtd"><svg t="1620290954556" class="icon" viewBox="0 0 1159 1024" version="1.1" xmlns="http://www.w3.org/2000/svg" p-id="2792" xmlns:xlink="http://www.w3.org/1999/xlink" width="226.3671875" height="200"><defs><style type="text/css"></style></defs><path d="M1101.939993 1021.417345c-30.901239 0-56.999646-20.389381-56.999646-44.584779v-356.950088c0-1.540531-1.63115-4.440354-5.573097-4.440354h-406.654868c-30.901239 0-56.999646-20.43469-56.999646-44.584779V330.579823c0-28.182655-30.584071-51.109381-68.14584-51.109381s-68.145841 22.926726-68.145841 51.109381v405.929912c0 13.72885-5.663717 25.192212-16.356814 33.212035-10.829027 8.065133-24.739115 12.550796-39.056991 12.550796-14.363186 0-28.227965-4.440354-39.102301-12.550796l-109.468319-81.648142c-14.181947-10.602478-33.574513-16.673982-53.148318-16.673982-17.942655 0-34.661947 5.12-47.031505 14.317876l-0.181239 0.135929-0.226549 0.13593c-11.055575 7.430796-17.353628 18.123894-17.670796 30.040354-0.362478 14.181947 7.340177 28.273274 21.204956 38.603893l256.543717 191.297699c11.553982 8.60885 17.942655 20.026903 17.942654 32.033983 0 12.052389-6.388673 23.425133-17.942654 32.033982-10.104071 7.521416-23.787611 11.372743-40.642832 11.372743-16.855221 0-30.538761-3.851327-40.642832-11.372743L57.052205 818.746903C20.35132 791.334513-0.445848 753.410265 0.00725 714.625133c0.453097-37.018053 19.664425-70.864425 54.099823-95.376991 34.797876-24.739115 80.24354-38.377345 128.090619-38.377346 49.387611 0 96.056637 14.499115 131.35292 40.824071l14.997523 11.146195V328.269027c0-77.343717 81.693451-140.233628 182.145132-140.233629s182.145133 62.935221 182.145133 140.233629v195.738053h349.700531c36.655575 0 71.770619 13.411681 93.92708 35.885309 15.813097 16.084956 23.83292 35.84 22.564247 55.640354v361.299823c-0.090619 24.195398-26.189027 44.584779-57.090265 44.584779z m0 0" p-id="2793"></path><path d="M170.417161 362.749735c30.176283 0 56.546549-21.069027 56.546549-45.128496 0-123.333097 128.226549-225.642478 282.823363-225.642478 154.596814 0 282.823363 102.309381 282.823362 225.642478 0 24.059469 26.370265 45.128496 56.546549 45.128496s56.546549-21.069027 56.546549-45.128496c0-174.487788-177.251681-315.899469-395.91646-315.899469-218.710088 0-395.91646 141.411681-395.916461 315.899469 0 24.104779 26.370265 45.128496 56.546549 45.128496z m0 0" p-id="2794"></path></svg>