<?xml version="1.0" standalone="no"?><!DOCTYPE svg PUBLIC "-//W3C//DTD SVG 1.1//EN" "http://www.w3.org/Graphics/SVG/1.1/DTD/svg11.dtd"><svg t="1622102300289" class="icon" viewBox="0 0 1024 1024" version="1.1" xmlns="http://www.w3.org/2000/svg" p-id="6083" xmlns:xlink="http://www.w3.org/1999/xlink" width="200" height="200"><defs><style type="text/css"></style></defs><path d="M520.896 815.296c197.952 0 358.976-166.08 358.976-370.112s-161.088-370.112-358.976-370.112-358.848 166.016-358.848 370.112 160.96 370.112 358.848 370.112z m0-676.224c162.688 0 294.976 137.344 294.976 306.112 0 168.832-132.288 306.112-294.976 306.112-162.624 0-294.848-137.344-294.848-306.112-0.064-168.768 132.224-306.112 294.848-306.112z" p-id="6084"></path><path d="M824.256 746.112a32.128 32.128 0 0 0-29.888 56.64c21.888 11.584 27.264 20.736 27.52 22.528-1.92 20.864-106.688 69.824-300.992 69.824-191.488 0-299.072-49.536-300.864-69.824 0.128-1.664 5.056-10.432 26.176-21.888a32 32 0 0 0-30.464-56.256c-49.344 26.688-59.712 57.216-59.712 78.144 0 91.968 189.12 133.824 364.864 133.824 175.808 0 364.992-41.856 364.992-133.824 0-21.248-10.688-52.224-61.632-79.168zM520.96 618.816a173.632 173.632 0 1 0 0.128-347.264 173.632 173.632 0 0 0-0.128 347.264z m-59.968-315.648a70.976 70.976 0 1 1 0 141.952 70.976 70.976 0 0 1 0-141.952z" p-id="6085"></path></svg>